<?xml version="1.0" encoding="UTF-8"?>
<svg xmlns="http://www.w3.org/2000/svg" version="1.1" width="512"
     height="512" x="0" y="0" viewBox="0 0 512 512" style="enable-background:new 0 0 512 512" xml:space="preserve"
     class="">
    <path fill="#354f52"
          d="M256 21.996c-135.311 0-245.002 109.691-245.002 245.002 0 84.802 43.088 159.535 108.561 203.516l135.213 41.471c.41.002.818.016 1.229.016 135.311 0 245.002-109.691 245.002-245.002S391.311 21.996 256 21.996z"
          opacity="1" data-original="#354f52"></path>
    <path fill="#49b1f7"
          d="M215.667 83.281s-11.667-38.667-41.333-42c-21.837-2.454-21.279-22.966-19.463-33.624-22.975 11.68-38.727 35.525-38.727 63.064 0 39.058 31.663 70.721 70.721 70.721 25.707 0 48.206-13.718 60.587-34.231-32.375 7.524-31.785-23.93-31.785-23.93z"
          opacity="1" data-original="#49b1f7" class=""></path>
    <path fill="#73c3f9"
          d="M186.864 0a70.392 70.392 0 0 0-32.901 8.121c-1.884 10.489-2.839 31.664 19.37 34.159 29.667 3.333 41.333 42 41.333 42s-.598 31.741 32.22 23.83a70.366 70.366 0 0 0 10.699-37.389C257.585 31.663 225.922 0 186.864 0z"
          opacity="1" data-original="#73c3f9"></path>
    <path fill="#49b1f7"
          d="M419.938 83.281s-11.667-38.667-41.333-42c-21.837-2.454-21.279-22.966-19.464-33.624-22.975 11.68-38.727 35.525-38.727 63.064 0 39.058 31.663 70.721 70.721 70.721 25.707 0 48.206-13.718 60.587-34.231-32.373 7.524-31.784-23.93-31.784-23.93z"
          opacity="1" data-original="#49b1f7" class=""></path>
    <path fill="#73c3f9"
          d="M391.136 0a70.392 70.392 0 0 0-32.901 8.121c-1.884 10.489-2.839 31.664 19.37 34.159 29.667 3.333 41.333 42 41.333 42s-.598 31.741 32.22 23.83a70.375 70.375 0 0 0 10.699-37.389C461.857 31.663 430.194 0 391.136 0z"
          opacity="1" data-original="#73c3f9"></path>
    <path fill="#49b1f7"
          d="M214.667 476.947c2.76-21.228 18.634-26.247 28.673-27.27-12.909-17.101-33.398-28.158-56.475-28.158-31.476 0-58.137 20.569-67.306 48.995a244.7 244.7 0 0 0 31.702 18.015l66.233 20.317c-2.708-6.935-4.725-17.307-2.827-31.899z"
          opacity="1" data-original="#49b1f7" class=""></path>
    <path fill="#73c3f9"
          d="M212.667 475.947c-1.938 14.904.207 25.406 3.001 32.338l2.693.826a246.846 246.846 0 0 0 36.41 2.873 70.698 70.698 0 0 0 2.814-19.744c0-16.485-5.656-31.64-15.112-43.665-9.928.761-26.939 5.325-29.806 27.372z"
          opacity="1" data-original="#73c3f9"></path>
    <path fill="#ffb332"
          d="M186.864 98.134a70.84 70.84 0 0 1-17.5-2.186v132.808c0 9.665 7.835 17.5 17.5 17.5s17.5-7.835 17.5-17.5V95.947a70.84 70.84 0 0 1-17.5 2.187z"
          opacity="1" data-original="#ffb332"></path>
    <path fill="#ffc839"
          d="M391.136 97.04a70.84 70.84 0 0 1-17.5-2.186v111.773c0 9.665 7.835 17.5 17.5 17.5s17.5-7.835 17.5-17.5V94.854a70.846 70.846 0 0 1-17.5 2.186zM186.864 465.657a70.84 70.84 0 0 1 17.5 2.186V228.755c0-9.665-7.835-17.5-17.5-17.5s-17.5 7.835-17.5 17.5v239.092a70.794 70.794 0 0 1 17.5-2.19z"
          opacity="1" data-original="#ffc839"></path>
    <path fill="#ffc839"
          d="M186.864 403.746c-9.665 0-17.5-7.835-17.5-17.5v-30.553c0-50.747 41.286-92.033 92.033-92.033h55.205c9.665 0 17.5 7.835 17.5 17.5s-7.835 17.5-17.5 17.5h-55.205c-31.448 0-57.033 25.585-57.033 57.033v30.553c0 9.665-7.835 17.5-17.5 17.5z"
          opacity="1" data-original="#ffc839"></path>
    <path fill="#ffdd40"
          d="M316.603 298.66c-9.665 0-17.5-7.835-17.5-17.5s7.835-17.5 17.5-17.5c31.448 0 57.033-25.585 57.033-57.033 0-9.665 7.835-17.5 17.5-17.5s17.5 7.835 17.5 17.5c0 50.747-41.286 92.033-92.033 92.033z"
          opacity="1" data-original="#ffdd40" class=""></path>
    <circle cx="186.864" cy="70.721" r="35.81" fill="#ffdd40" opacity="1" data-original="#ffdd40" class=""></circle>
    <circle cx="391.136" cy="70.721" r="35.81" fill="#ffdd40" opacity="1" data-original="#ffdd40" class=""></circle>
    <path fill="#ffdd40"
          d="M186.864 456.431c-18.522 0-33.759 14.063-35.618 32.094a243.256 243.256 0 0 0 67.194 20.612 35.645 35.645 0 0 0 4.233-16.896c.001-19.778-16.032-35.81-35.809-35.81z"
          opacity="1" data-original="#ffdd40" class=""></path>
    <path
        d="M51.527 132.011c-25.606 38.708-40.529 85.102-40.529 134.987 0 60.602 22.009 116.058 58.463 158.828 9.512-.626 17.789-3.053 24.926-6.502C117.612 408.102 132 384.175 132 358.381V202.947c0-47.306-51.371-64.813-80.473-70.936zM501.002 266.998c0-31.369-5.904-61.356-16.647-88.923-19.614 3.31-38.355 14.677-38.355 46.052 0 65.82-41.261 96.027-92.131 115.424-47.405 18.076-96.926 94.083-16.326 158.532 95.219-33.601 163.459-124.366 163.459-231.085z"
        fill="#2f3e46" opacity="1" data-original="#2f3e46" class=""></path>
</svg>
